<?xml version="1.0" encoding="utf-8"?>
<!-- Generator: Adobe Illustrator 16.0.0, SVG Export Plug-In . SVG Version: 6.00 Build 0)  -->
<!DOCTYPE svg PUBLIC "-//W3C//DTD SVG 1.1//EN" "http://www.w3.org/Graphics/SVG/1.1/DTD/svg11.dtd">
<svg version="1.1" id="圖層_1" xmlns="http://www.w3.org/2000/svg" xmlns:xlink="http://www.w3.org/1999/xlink" x="0px" y="0px"
	 width="1024px" height="768px" viewBox="0 0 1024 768" enable-background="new 0 0 1024 768" xml:space="preserve">
<path fill="#006837" d="M537.793,406.454v-44.643c0-1.261-1.022-2.281-2.282-2.281h-4.066h-37.3h-4.071
	c-1.257,0-2.273,1.013-2.279,2.269v40.588l-0.001,4.072c0.001,1.254,1.023,2.276,2.28,2.276h25.232V388.98h-6.513v-6.807h6.513
	v-7.389c0-4.43,4.018-7.407,7.258-7.407h7.292v6.192h-3.365c-1.655,0-3.866,1.345-3.866,3.002v5.602h6.571v6.807h-6.571v19.756h8.82
	h4.066C536.771,408.736,537.793,407.714,537.793,406.454z"/>
</svg>
