<?xml version="1.0" encoding="utf-8"?>
<!-- Generator: Adobe Illustrator 16.0.0, SVG Export Plug-In . SVG Version: 6.00 Build 0)  -->
<!DOCTYPE svg PUBLIC "-//W3C//DTD SVG 1.1//EN" "http://www.w3.org/Graphics/SVG/1.1/DTD/svg11.dtd">
<svg version="1.1" id="圖層_1" xmlns="http://www.w3.org/2000/svg" xmlns:xlink="http://www.w3.org/1999/xlink" x="0px" y="0px"
	 width="1024px" height="768px" viewBox="0 0 1024 768" enable-background="new 0 0 1024 768" xml:space="preserve">
<path fill="#FFFFFF" d="M549.794,409.454v-44.643c0-1.261-1.022-2.282-2.282-2.282h-4.067h-37.301h-4.07
	c-1.257,0-2.274,1.013-2.28,2.269v40.589l0,4.072c0,1.255,1.023,2.276,2.28,2.276h25.232V391.98h-6.512v-6.806h6.512v-7.391
	c0-4.43,4.018-7.407,7.259-7.407h7.292v6.192h-3.365c-1.656,0-3.867,1.345-3.867,3.002v5.604h6.572v6.806h-6.572v19.756h8.82h4.067
	C548.771,411.736,549.794,410.715,549.794,409.454z"/>
</svg>
