<?xml version="1.0" encoding="utf-8"?>
<!-- Generator: Adobe Illustrator 16.0.0, SVG Export Plug-In . SVG Version: 6.00 Build 0)  -->
<!DOCTYPE svg PUBLIC "-//W3C//DTD SVG 1.1//EN" "http://www.w3.org/Graphics/SVG/1.1/DTD/svg11.dtd">
<svg version="1.1" id="圖層_1" xmlns="http://www.w3.org/2000/svg" xmlns:xlink="http://www.w3.org/1999/xlink" x="0px" y="0px"
	 width="157.438px" height="144.123px" viewBox="0 0 157.438 144.123" enable-background="new 0 0 157.438 144.123"
	 xml:space="preserve">
<path fill="#FFFFFF" d="M126.828,66.963l-3.043,6.406C125.259,70.624,126.246,68.632,126.828,66.963z"/>
<path fill="#FFFFFF" d="M119.98,81.381c0.438-0.784,0.818-1.634,1.207-2.539l-1.204,2.531C119.98,81.378,119.98,81.38,119.98,81.381
	z"/>
<path fill="none" d="M110.67,57.382c0.191,0.064,0.381,0.131,0.574,0.196C111.051,57.513,110.861,57.446,110.67,57.382z"/>
<path fill="none" d="M105.479,55.279c0.139,0.072,0.285,0.139,0.43,0.207C105.764,55.418,105.619,55.351,105.479,55.279z"/>
<path fill="none" d="M103.916,54.484c0.115,0.058,0.23,0.122,0.346,0.179C104.146,54.606,104.031,54.542,103.916,54.484z"/>
<path fill="none" d="M107.115,56.024c0.164,0.068,0.332,0.141,0.498,0.209C107.443,56.165,107.279,56.092,107.115,56.024z"/>
<path fill="none" d="M108.844,56.719c0.18,0.071,0.361,0.139,0.547,0.209C109.205,56.858,109.025,56.791,108.844,56.719z"/>
<path fill="none" d="M102.434,53.618c0.071,0.046,0.148,0.09,0.221,0.132C102.582,53.708,102.505,53.664,102.434,53.618z"/>
<path fill="none" d="M85.568,32.611c0.008,0.008,0.018,0.02,0.028,0.032C85.582,32.625,85.576,32.619,85.568,32.611z"/>
<path fill="none" d="M85.951,33.058c0.148,0.177,0.338,0.411,0.567,0.709C86.289,33.468,86.1,33.235,85.951,33.058z"/>
<path fill="none" d="M85.635,32.687c0.061,0.068,0.154,0.176,0.28,0.326C85.789,32.862,85.695,32.752,85.635,32.687z"/>
<path fill="none" d="M86.529,33.78c0.318,0.406,0.711,0.93,1.178,1.58C87.24,34.708,86.848,34.186,86.529,33.78z"/>
<path fill="none" d="M87.748,35.416c0.331,0.462,0.699,0.988,1.102,1.582C88.447,36.403,88.08,35.878,87.748,35.416z"/>
<path fill="none" d="M123.281,74.308c-0.881,1.623-1.5,3.143-2.094,4.535l2.598-5.473c-0.094,0.174-0.186,0.343-0.279,0.522
	C123.432,74.031,123.359,74.161,123.281,74.308z"/>
<path fill="none" d="M89.367,37.766c-0.133-0.195-0.258-0.385-0.382-0.567C89.108,37.381,89.234,37.57,89.367,37.766L89.367,37.766z
	"/>
<path fill="none" d="M126.828,66.963l-3.043,6.406C125.259,70.624,126.246,68.632,126.828,66.963z"/>
<path fill="none" d="M121.188,78.842l-1.203,2.529C120.42,80.588,120.8,79.745,121.188,78.842z"/>
<path fill="none" d="M112.64,58.024c0.181,0.052,0.356,0.11,0.538,0.171C112.996,58.134,112.82,58.076,112.64,58.024z"/>
<path fill="#C3CE4E" d="M85.551,32.59c0,0,0.01,0.013,0.018,0.021C85.557,32.599,85.551,32.59,85.551,32.59z"/>
<path fill="#C3CE4E" d="M87.707,35.36c0.014,0.018,0.029,0.04,0.041,0.056C87.736,35.4,87.721,35.377,87.707,35.36z"/>
<path fill="#C3CE4E" d="M86.519,33.767c0.005,0.005,0.009,0.007,0.011,0.013C86.527,33.774,86.523,33.772,86.519,33.767z"/>
<path fill="#C3CE4E" d="M85.915,33.013c0.011,0.015,0.024,0.026,0.036,0.045C85.939,33.039,85.926,33.027,85.915,33.013z"/>
<path fill="#C3CE4E" d="M85.597,32.643c0.011,0.012,0.022,0.026,0.038,0.044C85.619,32.667,85.607,32.654,85.597,32.643z"/>
<path fill="#C3CE4E" d="M113.178,58.195c0.655,0.198,1.324,0.389,2.012,0.581C114.502,58.584,113.833,58.394,113.178,58.195z"/>
<path fill="#C3CE4E" d="M107.613,56.233c0.402,0.169,0.814,0.331,1.23,0.486C108.428,56.562,108.016,56.402,107.613,56.233z"/>
<path fill="#C3CE4E" d="M111.244,57.578c0.457,0.154,0.924,0.298,1.396,0.446C112.168,57.874,111.701,57.731,111.244,57.578z"/>
<path fill="#C3CE4E" d="M109.391,56.929c0.416,0.153,0.846,0.305,1.279,0.453C110.236,57.234,109.807,57.082,109.391,56.929z"/>
<path fill="#C3CE4E" d="M105.908,55.486c0.395,0.184,0.799,0.363,1.207,0.538C106.707,55.849,106.303,55.67,105.908,55.486z"/>
<polygon fill="#C3CE4E" points="119.983,81.373 119.984,81.371 119.98,81.381 "/>
<path fill="#C3CE4E" d="M104.262,54.663c0.396,0.214,0.801,0.418,1.217,0.616C105.063,55.082,104.658,54.877,104.262,54.663z"/>
<path fill="#C3CE4E" d="M102.654,53.75c0.412,0.254,0.832,0.498,1.262,0.735C103.486,54.248,103.066,54.004,102.654,53.75z"/>
<path fill="#C3CE4E" d="M88.85,36.997c0.043,0.066,0.09,0.131,0.136,0.201C88.939,37.128,88.893,37.063,88.85,36.997z"/>
<path fill="#FFFFFF" d="M123.281,74.308c-0.881,1.623-1.5,3.143-2.094,4.535l2.598-5.473c-0.094,0.174-0.186,0.343-0.279,0.522
	C123.432,74.031,123.359,74.161,123.281,74.308z"/>
<path fill="#C4CD32" d="M65.694,110.404c0.095,0.222,0.183,0.442,0.274,0.663C65.877,110.847,65.789,110.626,65.694,110.404
	L65.694,110.404z"/>
<polygon fill="#C4CD32" points="65.693,110.402 65.694,110.404 65.694,110.404 "/>
<g>
	<path fill="#7C7D7E" d="M17.8,131.661h-5.503l-1.449,4.2h-2.11l5.255-14.608h2.152l5.255,14.608h-2.131L17.8,131.661z
		 M15.048,123.26c0,0-0.331,1.324-0.579,2.069l-1.635,4.635h4.428l-1.614-4.635c-0.248-0.745-0.559-2.069-0.559-2.069H15.048z"/>
	<path fill="#7C7D7E" d="M26.162,125.143c2.421,0,3.228,1.655,3.228,1.655h0.042c0,0-0.042-0.311-0.042-0.704v-4.842h2.007v14.608
		h-1.904v-0.993c0-0.414,0.021-0.704,0.021-0.704h-0.042c0,0-0.848,1.945-3.435,1.945c-2.835,0-4.614-2.235-4.614-5.483
		C21.423,127.295,23.389,125.143,26.162,125.143z M26.431,134.371c1.552,0,3.021-1.097,3.021-3.766c0-1.862-0.973-3.725-2.959-3.725
		c-1.655,0-3.021,1.366-3.021,3.745C23.472,132.902,24.692,134.371,26.431,134.371z"/>
	<path fill="#7C7D7E" d="M38.393,125.143c3.125,0,5.648,2.296,5.648,5.462c0,3.187-2.524,5.504-5.648,5.504
		s-5.648-2.317-5.648-5.504C32.744,127.439,35.268,125.143,38.393,125.143z M38.393,134.371c1.986,0,3.6-1.572,3.6-3.766
		c0-2.173-1.614-3.725-3.6-3.725c-1.966,0-3.6,1.552-3.6,3.725C34.792,132.799,36.427,134.371,38.393,134.371z"/>
	<path fill="#7C7D7E" d="M45.388,125.391h1.841v0.89c0,0.414-0.042,0.765-0.042,0.765h0.042c0,0,0.89-1.903,3.518-1.903
		c2.814,0,4.593,2.234,4.593,5.483c0,3.331-2.007,5.483-4.738,5.483c-2.297,0-3.207-1.718-3.207-1.718h-0.042
		c0,0,0.042,0.373,0.042,0.911v4.697h-2.007V125.391z M50.292,134.392c1.655,0,3.021-1.365,3.021-3.745
		c0-2.276-1.221-3.745-2.958-3.745c-1.573,0-3.021,1.097-3.021,3.766C47.333,132.529,48.368,134.392,50.292,134.392z"/>
	<path fill="#7C7D7E" d="M57.205,127.15h-1.365v-1.614h1.428v-3.021h1.945v3.021h2.524v1.614h-2.524v4.656
		c0,2.09,1.469,2.358,2.234,2.358c0.29,0,0.476-0.041,0.476-0.041v1.779c0,0-0.29,0.041-0.704,0.041
		c-1.345,0-4.014-0.414-4.014-3.91V127.15z"/>
	<path fill="#7C7D7E" d="M72.89,129.322h0.456v-0.186c0-1.717-0.973-2.296-2.297-2.296c-1.614,0-2.917,1.014-2.917,1.014
		l-0.828-1.469c0,0,1.511-1.241,3.911-1.241c2.648,0,4.138,1.448,4.138,4.097v6.621H73.49v-0.993c0-0.476,0.042-0.828,0.042-0.828
		H73.49c0,0-0.848,2.069-3.352,2.069c-1.8,0-3.559-1.097-3.559-3.187C66.58,129.467,71.132,129.322,72.89,129.322z M70.573,134.495
		c1.697,0,2.793-1.779,2.793-3.331v-0.331h-0.517c-1.511,0-4.242,0.104-4.242,1.986C68.607,133.667,69.27,134.495,70.573,134.495z"
		/>
	<path fill="#7C7D7E" d="M82.018,121.253h4.842c4.469,0,7.407,2.669,7.407,7.283c0,4.635-2.938,7.325-7.407,7.325h-4.842V121.253z
		 M86.714,134.082c3.29,0,5.442-1.945,5.442-5.545c0-3.579-2.173-5.504-5.442-5.504h-2.648v11.049H86.714z"/>
	<path fill="#7C7D7E" d="M101.388,125.143c3.125,0,5.648,2.296,5.648,5.462c0,3.187-2.524,5.504-5.648,5.504
		s-5.648-2.317-5.648-5.504C95.739,127.439,98.263,125.143,101.388,125.143z M101.388,134.371c1.986,0,3.6-1.572,3.6-3.766
		c0-2.173-1.614-3.725-3.6-3.725c-1.966,0-3.6,1.552-3.6,3.725C97.788,132.799,99.422,134.371,101.388,134.371z"/>
	<path fill="#7C7D7E" d="M112.811,138.468c1.821,0,3.311-0.807,3.311-2.938v-0.766c0-0.331,0.021-0.662,0.021-0.662h-0.042
		c-0.621,1.035-1.593,1.635-3.104,1.635c-2.917,0-4.676-2.338-4.676-5.359c0-3,1.676-5.235,4.573-5.235
		c2.524,0,3.29,1.552,3.29,1.552h0.041c0,0-0.021-0.145-0.021-0.331v-0.973h1.924v10.035c0,3.456-2.628,4.78-5.276,4.78
		c-1.262,0-2.565-0.352-3.58-0.869l0.662-1.572C109.935,137.765,111.239,138.468,112.811,138.468z M116.163,130.398
		c0-2.731-1.324-3.518-2.958-3.518c-1.821,0-2.855,1.324-2.855,3.456c0,2.172,1.159,3.662,3.042,3.662
		C114.839,133.999,116.163,133.13,116.163,130.398z"/>
	<path fill="#7C7D7E" d="M124.669,138.468c1.82,0,3.311-0.807,3.311-2.938v-0.766c0-0.331,0.021-0.662,0.021-0.662h-0.042
		c-0.621,1.035-1.593,1.635-3.104,1.635c-2.917,0-4.676-2.338-4.676-5.359c0-3,1.676-5.235,4.573-5.235
		c2.524,0,3.29,1.552,3.29,1.552h0.041c0,0-0.021-0.145-0.021-0.331v-0.973h1.924v10.035c0,3.456-2.628,4.78-5.276,4.78
		c-1.262,0-2.565-0.352-3.58-0.869l0.662-1.572C121.793,137.765,123.097,138.468,124.669,138.468z M128.021,130.398
		c0-2.731-1.324-3.518-2.958-3.518c-1.821,0-2.855,1.324-2.855,3.456c0,2.172,1.159,3.662,3.042,3.662
		C126.697,133.999,128.021,133.13,128.021,130.398z"/>
	<path fill="#7C7D7E" d="M132.7,121.253h2.028v2.049H132.7V121.253z M132.72,125.391h2.007v10.47h-2.007V125.391z"/>
	<path fill="#7C7D7E" d="M141.97,125.143c2.959,0,4.531,2.193,4.531,4.904c0,0.269-0.062,0.869-0.062,0.869h-7.635
		c0.104,2.296,1.738,3.455,3.6,3.455c1.8,0,3.104-1.221,3.104-1.221l0.828,1.469c0,0-1.552,1.49-4.055,1.49
		c-3.29,0-5.545-2.38-5.545-5.483C136.735,127.295,138.99,125.143,141.97,125.143z M144.453,129.405
		c-0.062-1.8-1.179-2.669-2.524-2.669c-1.531,0-2.772,0.952-3.062,2.669H144.453z"/>
</g>
<path fill="#C3CE4E" d="M68.854,102.155c0,0-1.55,3.967-1.55,7.378h5.404l6.987-6.991"/>
<path fill="#C3CE4E" d="M38.972,27.339c0,0,0.002,0.003,0.002,0.008C38.974,27.343,38.972,27.341,38.972,27.339z"/>
<path fill="#C3CE4E" d="M28.336,68.072c-0.034,0.027-0.073,0.063-0.106,0.093C28.263,68.135,28.301,68.1,28.336,68.072z"/>
<path fill="#C3CE4E" d="M27.847,68.504c-0.023,0.018-0.044,0.039-0.067,0.056C27.803,68.543,27.823,68.524,27.847,68.504z"/>
<path fill="#C3CE4E" d="M44.53,48.852c-0.059,0.17-0.132,0.345-0.201,0.518C44.398,49.196,44.471,49.021,44.53,48.852z"/>
<path fill="#C3CE4E" d="M44.772,48.025c-0.037,0.148-0.088,0.301-0.133,0.45C44.684,48.326,44.735,48.173,44.772,48.025z"/>
<path fill="#C3CE4E" d="M44.197,49.712c-0.08,0.181-0.173,0.37-0.264,0.559C44.024,50.083,44.117,49.894,44.197,49.712z"/>
<path fill="#C3CE4E" d="M39.625,31.745c0.009,0.037,0.014,0.073,0.022,0.11C39.639,31.818,39.633,31.782,39.625,31.745z"/>
<path fill="#C3CE4E" d="M29.515,67.018c-0.1,0.087-0.197,0.18-0.292,0.267C29.318,67.192,29.415,67.108,29.515,67.018z"/>
<path fill="#C3CE4E" d="M28.853,67.61c-0.065,0.062-0.128,0.117-0.191,0.175C28.725,67.727,28.788,67.672,28.853,67.61z"/>
<path fill="#C3CE4E" d="M43.279,51.519c-0.124,0.215-0.259,0.432-0.391,0.656C43.02,51.951,43.155,51.734,43.279,51.519z"/>
<path fill="#C3CE4E" d="M42.712,52.458c-0.146,0.231-0.303,0.46-0.459,0.694C42.41,52.918,42.567,52.689,42.712,52.458z"/>
<path fill="#C3CE4E" d="M44.289,43.825c0.014,0.033,0.028,0.069,0.041,0.112C44.317,43.894,44.302,43.858,44.289,43.825z"/>
<path fill="#C3CE4E" d="M44.914,47.238c-0.018,0.131-0.048,0.271-0.074,0.404C44.865,47.509,44.896,47.37,44.914,47.238z"/>
<path fill="#C3CE4E" d="M44.518,44.497c0.008,0.027,0.017,0.05,0.024,0.074C44.535,44.547,44.526,44.524,44.518,44.497z"/>
<path fill="#C3CE4E" d="M44.074,43.261c0.009,0.024,0.017,0.042,0.027,0.065C44.091,43.303,44.083,43.286,44.074,43.261z"/>
<path fill="#C3CE4E" d="M27.477,68.826c-0.004,0.002-0.008,0.008-0.013,0.01C27.469,68.833,27.473,68.828,27.477,68.826z"/>
<path fill="#C3CE4E" d="M44.947,46.5c0.004,0.115-0.012,0.239-0.018,0.359C44.935,46.738,44.951,46.614,44.947,46.5z"/>
<path fill="#C3CE4E" d="M39.207,29.347c0.011,0.082,0.021,0.157,0.033,0.233C39.228,29.504,39.217,29.429,39.207,29.347z"/>
<path fill="#C3CE4E" d="M44.687,45.065c0.012,0.056,0.025,0.104,0.039,0.152C44.712,45.168,44.699,45.121,44.687,45.065z"/>
<path fill="#C3CE4E" d="M43.776,50.603c-0.1,0.2-0.214,0.402-0.325,0.599C43.562,51.005,43.676,50.802,43.776,50.603z"/>
<path fill="#C3CE4E" d="M38.766,23.08c0-0.014,0-0.027,0-0.041C38.766,23.053,38.766,23.066,38.766,23.08z"/>
<path fill="#C3CE4E" d="M32.292,64.429c-0.098,0.092-0.192,0.181-0.288,0.276C32.099,64.61,32.193,64.521,32.292,64.429z"/>
<path fill="#C3CE4E" d="M39.109,28.605c-0.002-0.006-0.002-0.009-0.003-0.015c0,0.003,0.001,0.007,0.001,0.014L39.109,28.605z"/>
<path fill="#C3CE4E" d="M35.256,61.484C35,61.75,34.74,62.013,34.484,62.269C34.74,62.011,34.999,61.75,35.256,61.484z"/>
<path fill="#C3CE4E" d="M35.494,61.237c0.632-0.65,1.265-1.325,1.889-2.01c-0.288,0.314-0.578,0.627-0.869,0.938
	C36.175,60.529,35.835,60.882,35.494,61.237z"/>
<path fill="#C3CE4E" d="M33.229,63.515c-0.311,0.311-0.621,0.609-0.92,0.898C32.608,64.124,32.917,63.826,33.229,63.515z"/>
<path fill="#C3CE4E" d="M34.209,62.549c-0.256,0.256-0.509,0.504-0.758,0.751C33.7,63.053,33.954,62.805,34.209,62.549z"/>
<path fill="#C3CE4E" d="M38.944,17.43c-0.012,0.191-0.029,0.392-0.04,0.579C38.915,17.822,38.932,17.621,38.944,17.43z"/>
<path fill="#C3CE4E" d="M42.081,53.413c-0.17,0.248-0.35,0.5-0.53,0.75C41.731,53.913,41.911,53.661,42.081,53.413z"/>
<path fill="#C3CE4E" d="M31.61,65.075c-0.106,0.102-0.212,0.202-0.316,0.302C31.398,65.277,31.503,65.176,31.61,65.075z"/>
<path fill="#C3CE4E" d="M39.884,56.329c-0.227,0.279-0.459,0.556-0.694,0.835C39.425,56.884,39.657,56.608,39.884,56.329z"/>
<path fill="#C3CE4E" d="M30.128,66.455c-0.092,0.087-0.185,0.171-0.275,0.254C29.944,66.626,30.034,66.542,30.128,66.455z"/>
<path fill="#C3CE4E" d="M40.661,55.354c-0.217,0.281-0.441,0.56-0.669,0.84C40.219,55.913,40.443,55.634,40.661,55.354z"/>
<path fill="#C3CE4E" d="M38.237,58.272c-0.264,0.3-0.535,0.599-0.806,0.895C37.703,58.872,37.973,58.573,38.237,58.272z"/>
<path fill="#C3CE4E" d="M38.774,21.322c-0.001,0.056-0.002,0.111-0.004,0.165C38.772,21.434,38.773,21.378,38.774,21.322z"/>
<path fill="#C3CE4E" d="M41.395,54.378c-0.203,0.276-0.412,0.552-0.626,0.831C40.983,54.931,41.192,54.654,41.395,54.378z"/>
<path fill="#C3CE4E" d="M38.83,19.473c-0.004,0.106-0.01,0.219-0.014,0.325C38.82,19.692,38.826,19.579,38.83,19.473z"/>
<path fill="#C3CE4E" d="M30.89,65.752c-0.139,0.129-0.277,0.256-0.409,0.38C30.613,66.008,30.75,65.885,30.89,65.752z"/>
<path fill="#C3CE4E" d="M39.074,57.302c-0.25,0.297-0.504,0.591-0.76,0.878C38.57,57.89,38.824,57.599,39.074,57.302z"/>
<path fill="#C3CE4E" d="M32.294,64.425c0.003-0.004,0.009-0.01,0.014-0.012c-0.007,0.004-0.012,0.012-0.017,0.016
	C32.292,64.426,32.294,64.426,32.294,64.425z"/>
<path fill="#C3CE4E" d="M29.223,67.285c-0.125,0.107-0.251,0.222-0.37,0.325C28.972,67.506,29.096,67.392,29.223,67.285z"/>
<path fill="#C3CE4E" d="M31.293,65.377c-0.137,0.127-0.272,0.251-0.403,0.375C31.021,65.628,31.157,65.504,31.293,65.377z"/>
<path fill="#C3CE4E" d="M29.854,66.709c-0.117,0.106-0.229,0.208-0.338,0.309C29.626,66.917,29.736,66.816,29.854,66.709z"/>
<path fill="#C3CE4E" d="M30.481,66.132c-0.12,0.113-0.237,0.219-0.353,0.323C30.244,66.351,30.361,66.245,30.481,66.132z"/>
<path fill="#C3CE4E" d="M33.452,63.3c-0.074,0.073-0.15,0.148-0.223,0.214C33.302,63.448,33.377,63.374,33.452,63.3z"/>
<path fill="#C3CE4E" d="M32.003,64.706c-0.134,0.124-0.264,0.247-0.394,0.369C31.74,64.953,31.87,64.83,32.003,64.706z"/>
<path fill="#C3CE4E" d="M28.662,67.785c-0.112,0.098-0.223,0.196-0.326,0.288C28.44,67.981,28.549,67.883,28.662,67.785z"/>
<path fill="#C3CE4E" d="M26.995,69.234c0.01-0.003,0.179-0.144,0.469-0.398c-0.303,0.264-0.472,0.407-0.472,0.407L26.995,69.234z"/>
<path fill="#C3CE4E" d="M27.78,68.56c-0.11,0.099-0.216,0.189-0.303,0.266C27.567,68.75,27.667,68.661,27.78,68.56z"/>
<path fill="#C3CE4E" d="M28.229,68.166c-0.138,0.124-0.265,0.235-0.383,0.339C27.964,68.398,28.09,68.289,28.229,68.166z"/>
<path fill="#C3CE4E" d="M39.109,28.605c0.029,0.254,0.063,0.5,0.097,0.742C39.173,29.105,39.139,28.86,39.109,28.605z"/>
<path fill="#C3CE4E" d="M41.551,54.164c-0.054,0.071-0.103,0.141-0.156,0.215C41.448,54.305,41.497,54.235,41.551,54.164z"/>
<path fill="#C3CE4E" d="M39.992,56.194c-0.037,0.045-0.072,0.093-0.108,0.135C39.919,56.287,39.955,56.239,39.992,56.194z"/>
<path fill="#C3CE4E" d="M39.189,57.164c-0.041,0.047-0.077,0.095-0.116,0.139C39.113,57.258,39.149,57.21,39.189,57.164z"/>
<path fill="#C3CE4E" d="M43.451,51.202c-0.057,0.109-0.11,0.211-0.172,0.317C43.34,51.411,43.394,51.311,43.451,51.202z"/>
<path fill="#C3CE4E" d="M42.253,53.152c-0.059,0.087-0.111,0.172-0.172,0.261C42.142,53.325,42.195,53.239,42.253,53.152z"/>
<path fill="#C3CE4E" d="M43.933,50.271c-0.054,0.111-0.1,0.217-0.157,0.331C43.833,50.489,43.879,50.383,43.933,50.271z"/>
<path fill="#C3CE4E" d="M42.888,52.174c-0.061,0.09-0.115,0.188-0.175,0.284C42.774,52.362,42.827,52.265,42.888,52.174z"/>
<path fill="#C3CE4E" d="M44.929,46.858c0.006-0.12,0.022-0.244,0.018-0.359c-0.009-0.241-0.034-0.473-0.082-0.695
	c-0.042-0.199-0.089-0.391-0.139-0.588c-0.014-0.048-0.027-0.096-0.039-0.152c-0.047-0.163-0.095-0.33-0.145-0.494
	c-0.007-0.024-0.016-0.047-0.024-0.074c-0.059-0.191-0.122-0.377-0.188-0.56c-0.013-0.043-0.027-0.079-0.041-0.112
	c-0.06-0.171-0.123-0.337-0.188-0.499c-0.01-0.023-0.018-0.041-0.027-0.065c-1.244-3.107-3.27-6.001-4.427-11.406
	c-0.008-0.037-0.014-0.074-0.022-0.11c-0.144-0.679-0.272-1.398-0.385-2.165c-0.012-0.076-0.022-0.151-0.033-0.233
	c-0.034-0.242-0.068-0.487-0.097-0.742l-0.002-0.001c0-0.006-0.001-0.01-0.001-0.014c-0.049-0.401-0.093-0.814-0.132-1.243
	c0-0.004-0.002-0.006-0.002-0.006c-0.116-1.285-0.188-2.682-0.206-4.204c0,0.139-0.002,0.29-0.001,0.428c0,0.014,0,0.032,0,0.044
	c0.016,1.623,0.087,3.106,0.207,4.467l0.002,0.008c0.039,0.447,0.083,0.886,0.132,1.306c0,0.003,0.001,0.011,0.001,0.011
	c0,0.006,0,0.008,0,0.008c0.032,0.268,0.066,0.521,0.1,0.779c0.011,0.082,0.021,0.165,0.033,0.243
	c0.112,0.801,0.241,1.559,0.385,2.274c0.009,0.033,0.014,0.072,0.022,0.111c1.157,5.674,3.183,8.706,4.427,11.969
	c0.009,0.022,0.017,0.043,0.027,0.064c0.065,0.173,0.128,0.348,0.188,0.521c0.014,0.041,0.028,0.079,0.041,0.119
	c0.066,0.197,0.129,0.39,0.188,0.587c0.008,0.03,0.017,0.058,0.024,0.084c0.05,0.172,0.097,0.344,0.145,0.52
	c0.012,0.051,0.025,0.103,0.039,0.161c0.05,0.199,0.097,0.406,0.139,0.611c0.002,0.016,0.001,0.022,0.004,0.031
	c0.015-0.082,0.035-0.163,0.044-0.243C44.927,47.109,44.923,46.984,44.929,46.858z"/>
<path fill="#C3CE4E" d="M39.127,15.15c-0.029,0.322-0.062,0.646-0.089,0.958c-0.036,0.453-0.063,0.888-0.094,1.322
	c-0.012,0.191-0.029,0.392-0.04,0.579c-0.031,0.503-0.053,0.987-0.074,1.464c-0.004,0.106-0.01,0.219-0.014,0.325
	c-0.021,0.524-0.033,1.032-0.042,1.524c-0.001,0.056-0.002,0.111-0.004,0.165c-0.007,0.532-0.007,1.046-0.004,1.552
	c0,0.014,0,0.027,0,0.041c0,0.019,0.001,0.037,0.001,0.057c-0.001-0.396-0.002-0.787,0.003-1.197
	c0.002-0.057,0.003-0.115,0.004-0.17c0.009-0.524,0.021-1.053,0.042-1.601c0.004-0.112,0.01-0.229,0.014-0.341
	c0.021-0.505,0.042-1.013,0.074-1.539c0.011-0.196,0.028-0.404,0.04-0.608c0.03-0.456,0.058-0.912,0.094-1.385
	c0.027-0.328,0.06-0.67,0.089-1.005c0.032-0.368,0.061-0.729,0.098-1.111c0.06-0.607,0.128-1.239,0.2-1.878
	c-0.072,0.609-0.14,1.212-0.2,1.792C39.188,14.455,39.159,14.799,39.127,15.15z"/>
<path fill="#C3CE4E" d="M149.535,66.094c-0.293,0.199-0.715,0.343-1.334,0.386l0.014,0.002h-0.127h-0.533h-14.828v0.048
	l-0.006-0.002c-0.012-0.011-0.176-0.143-0.47-0.387c-0.003-0.003-0.007-0.005-0.012-0.01c-0.089-0.074-0.192-0.161-0.302-0.251
	c-0.021-0.019-0.046-0.034-0.067-0.053c-0.117-0.1-0.247-0.206-0.385-0.323c-0.033-0.032-0.071-0.058-0.106-0.089
	c-0.104-0.084-0.213-0.179-0.324-0.275c-0.063-0.054-0.129-0.105-0.191-0.165c-0.119-0.098-0.242-0.207-0.371-0.315
	c-0.094-0.078-0.191-0.165-0.289-0.249c-0.111-0.099-0.224-0.194-0.34-0.293c-0.092-0.081-0.182-0.159-0.277-0.245
	c-0.113-0.097-0.232-0.203-0.351-0.305c-0.134-0.117-0.271-0.238-0.409-0.364c-0.133-0.116-0.268-0.236-0.402-0.359
	c-0.105-0.093-0.213-0.189-0.318-0.285c-0.129-0.113-0.26-0.233-0.393-0.354c-0.096-0.086-0.191-0.172-0.287-0.264
	c-0.006-0.001-0.012-0.01-0.018-0.012c-0.3-0.274-0.609-0.561-0.92-0.854c-0.074-0.069-0.148-0.139-0.225-0.207
	c-0.248-0.234-0.5-0.477-0.754-0.718c-0.096-0.086-0.186-0.177-0.277-0.265c-0.258-0.245-0.515-0.497-0.773-0.75
	c-0.08-0.076-0.158-0.151-0.237-0.231c-0.341-0.336-0.683-0.678-1.022-1.026c-0.289-0.293-0.578-0.591-0.865-0.892
	c-0.018-0.017-0.033-0.036-0.051-0.056c-0.271-0.283-0.541-0.568-0.805-0.855c-0.025-0.03-0.051-0.058-0.076-0.083
	c-0.256-0.28-0.51-0.557-0.76-0.838c-0.041-0.044-0.078-0.086-0.117-0.13c-0.232-0.268-0.467-0.534-0.693-0.797
	c-0.037-0.045-0.072-0.085-0.105-0.129c-0.227-0.267-0.453-0.538-0.672-0.805c-0.037-0.046-0.07-0.088-0.107-0.134
	c-0.213-0.263-0.424-0.526-0.627-0.792c-0.053-0.067-0.1-0.138-0.152-0.208c-0.182-0.237-0.363-0.476-0.534-0.713
	c-0.06-0.082-0.114-0.165-0.172-0.246c-0.155-0.224-0.313-0.445-0.458-0.664c-0.063-0.091-0.115-0.184-0.174-0.273
	c-0.135-0.205-0.27-0.414-0.395-0.62c-0.063-0.101-0.111-0.202-0.171-0.298c-0.112-0.193-0.226-0.385-0.325-0.576
	c-0.059-0.108-0.104-0.209-0.156-0.314c-0.09-0.18-0.184-0.359-0.262-0.534c-0.053-0.108-0.09-0.214-0.133-0.324
	c-0.069-0.168-0.145-0.335-0.203-0.497c-0.043-0.121-0.071-0.237-0.107-0.358c-0.046-0.14-0.099-0.287-0.133-0.429"/>
<path fill="#C3CE4E" d="M127.291,62.218c0,0-0.486-2.05-3.969-2.05c-0.687,0-1.508-0.052-2.481-0.179
	c0.124,0.149,0.243,0.299,0.368,0.449c0.023,0.029,0.049,0.057,0.076,0.093c0.266,0.313,0.533,0.629,0.803,0.941
	c0.02,0.021,0.035,0.041,0.052,0.062c0.288,0.331,0.577,0.66,0.868,0.984c0.338,0.38,0.678,0.756,1.021,1.122
	c0.078,0.093,0.156,0.177,0.235,0.262c0.261,0.277,0.519,0.552,0.772,0.823c0.094,0.101,0.186,0.197,0.277,0.293
	c0.256,0.269,0.508,0.529,0.758,0.788c0.072,0.076,0.148,0.156,0.221,0.232c0.213,0.216,0.418,0.423,0.627,0.635
	c0.354-1.087,0.539-2.057,0.557-3.016C127.445,63.188,127.391,62.715,127.291,62.218z"/>
<path fill="#C3CE4E" d="M34.484,62.269c-0.092,0.094-0.185,0.186-0.275,0.28C34.299,62.455,34.393,62.364,34.484,62.269z"/>
<path fill="#C3CE4E" d="M35.494,61.237c-0.079,0.081-0.157,0.163-0.238,0.247C35.337,61.4,35.416,61.322,35.494,61.237z"/>
<path fill="#C3CE4E" d="M37.431,59.167c-0.016,0.021-0.031,0.039-0.048,0.06C37.4,59.207,37.416,59.188,37.431,59.167z"/>
<path fill="#C3CE4E" d="M38.766,23.039c-0.003-0.506-0.003-1.02,0.004-1.552C38.762,22.019,38.762,22.533,38.766,23.039z"/>
<path fill="#C3CE4E" d="M38.314,58.18c-0.027,0.029-0.051,0.063-0.077,0.092C38.263,58.243,38.287,58.209,38.314,58.18z"/>
<path fill="#C3CE4E" d="M40.769,55.209c-0.036,0.046-0.07,0.095-0.108,0.144C40.699,55.305,40.733,55.255,40.769,55.209z"/>
<path fill="#C3CE4E" d="M44.101,43.327c0.065,0.162,0.128,0.328,0.188,0.499C44.229,43.654,44.166,43.488,44.101,43.327z"/>
<path fill="#C3CE4E" d="M44.329,49.37c-0.046,0.114-0.083,0.228-0.132,0.343C44.246,49.598,44.283,49.484,44.329,49.37z"/>
<path fill="#C3CE4E" d="M38.974,27.347c0.039,0.429,0.083,0.842,0.132,1.243C39.057,28.189,39.013,27.776,38.974,27.347z"/>
<path fill="#C3CE4E" d="M39.24,29.58c0.112,0.767,0.241,1.486,0.385,2.165C39.48,31.066,39.352,30.347,39.24,29.58z"/>
<path fill="#C3CE4E" d="M38.904,18.008c-0.031,0.503-0.053,0.987-0.074,1.464C38.851,18.996,38.873,18.511,38.904,18.008z"/>
<path fill="#C3CE4E" d="M38.871,26.013c-0.059-0.923-0.093-1.896-0.105-2.933c0.016,1.55,0.087,2.958,0.207,4.259
	C38.933,26.909,38.901,26.47,38.871,26.013z"/>
<path fill="#C3CE4E" d="M38.816,19.798c-0.021,0.524-0.033,1.032-0.042,1.524C38.783,20.83,38.795,20.322,38.816,19.798z"/>
<path fill="#C3CE4E" d="M39.647,31.855c1.157,5.405,3.183,8.299,4.427,11.406C42.83,40.153,40.804,37.262,39.647,31.855z"/>
<path fill="#C3CE4E" d="M44.839,47.642c-0.022,0.125-0.038,0.254-0.067,0.383C44.801,47.896,44.817,47.767,44.839,47.642z"/>
<path fill="#C3CE4E" d="M44.639,48.475c-0.036,0.131-0.066,0.249-0.109,0.377C44.573,48.724,44.603,48.605,44.639,48.475z"/>
<path fill="#C3CE4E" d="M44.929,46.858c-0.005,0.125-0.002,0.25-0.015,0.38C44.927,47.109,44.923,46.984,44.929,46.858z"/>
<path fill="#C3CE4E" d="M44.726,45.217c0.05,0.197,0.097,0.389,0.139,0.588C44.823,45.605,44.776,45.414,44.726,45.217z"/>
<path fill="#C3CE4E" d="M44.542,44.571c0.05,0.164,0.097,0.331,0.145,0.494C44.64,44.902,44.591,44.735,44.542,44.571z"/>
<path fill="#C3CE4E" d="M44.865,45.805c0.047,0.222,0.073,0.454,0.082,0.695C44.938,46.258,44.913,46.027,44.865,45.805z"/>
<path fill="#C3CE4E" d="M44.33,43.938c0.066,0.182,0.129,0.368,0.188,0.56C44.459,44.306,44.396,44.12,44.33,43.938z"/>
<path fill="#AD437E" d="M43.302,89.897c-0.872,0.596-1.462,1.219-1.644,1.426c0.04,0.045,0.066,0.072,0.066,0.072
	C42.261,90.792,42.788,90.3,43.302,89.897z"/>
<path fill="#FFFFFF" d="M42.581,40.02c0,0,2.531,5.156,0.307,10.244c0,0,7.513,6.29,6.208,2.889
	c-1.304-3.398-2.353-11.657-2.353-11.657s0.121-0.525-0.829-1.476"/>
<path fill="#CCD74A" d="M149.93,63.971l-0.23-0.514l-3.7-8.159l-17.384-38.341l-0.167-0.266c-0.206-0.312-0.411-0.601-0.616-0.874
	c-1.48-1.991-2.939-3.021-4.174-3.54c-0.357-0.142-0.695-0.245-1.011-0.318c-0.696-0.156-1.278-0.163-1.696-0.131H63.978
	l0.147,0.128h-0.022c0,0,1.35,1.303,3.367,3.246c5.996,5.792,17.928,17.304,18.081,17.387c0,0,0.006,0.009,0.018,0.021
	c0.008,0.008,0.014,0.015,0.028,0.032c0.011,0.012,0.022,0.025,0.038,0.044c0.061,0.065,0.154,0.176,0.28,0.326
	c0.011,0.015,0.024,0.026,0.036,0.045c0.148,0.177,0.338,0.411,0.567,0.709c0.005,0.005,0.009,0.007,0.011,0.013
	c0.318,0.406,0.711,0.928,1.178,1.58c0.014,0.018,0.029,0.04,0.041,0.056c0.332,0.462,0.699,0.988,1.102,1.582
	c0.043,0.066,0.09,0.131,0.136,0.201c0.124,0.183,0.249,0.372,0.382,0.567l0,0c0,0,10.033,13.731,11.652,14.918
	c0.459,0.327,0.932,0.637,1.414,0.934c0.071,0.046,0.148,0.09,0.221,0.132c0.412,0.254,0.832,0.498,1.262,0.735
	c0.115,0.058,0.23,0.122,0.346,0.179c0.396,0.214,0.801,0.418,1.217,0.616c0.141,0.072,0.285,0.139,0.43,0.207
	c0.395,0.184,0.799,0.363,1.207,0.538c0.164,0.068,0.328,0.141,0.498,0.209c0.402,0.169,0.814,0.329,1.23,0.486
	c0.182,0.071,0.361,0.139,0.547,0.209c0.416,0.153,0.846,0.305,1.279,0.453c0.191,0.064,0.381,0.131,0.574,0.196
	c0.457,0.154,0.924,0.296,1.396,0.446c0.181,0.052,0.356,0.11,0.538,0.171c0.655,0.198,1.324,0.389,2.012,0.581
	c2.322,0.655,4.168,1.024,5.651,1.213c0.974,0.127,4.418,10.634,2.944,13.38l-2.598,5.473c-0.388,0.903-0.768,1.746-1.203,2.529
	l-0.001,0.002c-0.003,0.005-0.003,0.007-0.003,0.007c-6.216,12.805-25.127,5.058-25.131,5.058c-3.225-0.604-5.399-0.948-8.104,0.829
	c-5.219,3.439-15.41,9.788-17.397,13.757c-0.677,1.35-1.036,2.7-1.179,3.985l0,0c-0.101,0.929-0.086,1.826,0,2.666v1.858h7.988
	l-0.004-0.003h15.788h10.699v0.003h6.429h19.206h2.518c1.068,0,1.934-0.866,1.934-1.931V85.876V73.59v-4.396V66.53v-0.048h14.828
	h0.533h0.127l-0.014-0.002c0.619-0.042,1.041-0.187,1.334-0.386C150.585,65.387,149.93,63.971,149.93,63.971z"/>
<path fill="#CCD74A" d="M44.865,45.769c-0.042-0.201-0.089-0.395-0.139-0.588c-0.014-0.048-0.027-0.099-0.039-0.152
	c-0.047-0.166-0.095-0.33-0.145-0.491c-0.007-0.028-0.016-0.052-0.024-0.078c-0.059-0.189-0.122-0.376-0.188-0.566
	c-0.013-0.032-0.027-0.067-0.041-0.105c-0.06-0.168-0.123-0.333-0.188-0.499c-0.01-0.023-0.018-0.043-0.027-0.066
	c-1.244-3.105-3.27-5.999-4.427-11.404c-0.008-0.036-0.014-0.071-0.022-0.105c-0.144-0.679-0.272-1.4-0.385-2.164
	c-0.012-0.078-0.022-0.154-0.033-0.235c-0.034-0.241-0.068-0.488-0.097-0.737c-0.002-0.002-0.002-0.002-0.002-0.007
	c0-0.004-0.001-0.006-0.001-0.012c-0.049-0.404-0.093-0.816-0.132-1.241c0-0.005-0.002-0.008-0.002-0.008
	c-0.119-1.298-0.19-2.711-0.207-4.258c0-0.014,0-0.028,0-0.042c-0.001-0.135,0.001-0.275,0.001-0.41
	c0-0.018-0.001-0.035-0.001-0.052s0-0.029,0-0.039c-0.003-0.483-0.003-0.972,0.004-1.48c0.002-0.051,0.003-0.104,0.004-0.154
	c0.009-0.473,0.021-0.956,0.042-1.453c0.004-0.104,0.01-0.208,0.014-0.313c0.021-0.456,0.042-0.916,0.074-1.397
	c0.011-0.177,0.028-0.367,0.04-0.549c0.03-0.414,0.058-0.829,0.094-1.259c0.022-0.227,0.046-0.466,0.068-0.703
	c0.007-0.069,0.013-0.138,0.021-0.21c0.032-0.334,0.061-0.664,0.098-1.005c0.06-0.558,0.128-1.129,0.2-1.707
	c0.007-0.077,0.015-0.154,0.024-0.229l0.041-0.264h-0.969l-0.003,0.029c-0.388-0.013-0.879,0.016-1.449,0.143
	c-0.315,0.073-0.656,0.176-1.013,0.318c-1.234,0.52-2.691,1.549-4.172,3.54c-0.207,0.273-0.411,0.562-0.617,0.874L31.1,16.958
	L13.718,55.299l-3.699,8.159l-0.234,0.514c0,0-1.087,2.328,1.729,2.509l-0.013,0.002h0.128h0.532h14.83v0.048l0.003-0.002
	c0.012-0.011,0.177-0.143,0.469-0.387c0.005-0.003,0.009-0.005,0.013-0.01c0.087-0.074,0.192-0.161,0.303-0.251
	c0.023-0.019,0.043-0.034,0.067-0.053c0.118-0.1,0.245-0.206,0.383-0.323c0.034-0.032,0.073-0.058,0.106-0.089
	c0.103-0.084,0.214-0.179,0.326-0.275c0.063-0.054,0.125-0.105,0.191-0.165c0.119-0.098,0.245-0.207,0.37-0.315
	c0.095-0.078,0.192-0.165,0.292-0.249c0.109-0.099,0.222-0.194,0.338-0.293c0.09-0.081,0.183-0.159,0.275-0.245
	c0.115-0.097,0.232-0.203,0.353-0.305c0.132-0.117,0.271-0.238,0.409-0.364c0.131-0.116,0.267-0.236,0.403-0.359
	c0.104-0.093,0.21-0.189,0.316-0.285c0.13-0.113,0.26-0.233,0.394-0.354c0.096-0.086,0.19-0.172,0.288-0.264
	c0.005-0.001,0.01-0.01,0.017-0.012c0.299-0.274,0.61-0.561,0.92-0.854c0.072-0.069,0.148-0.139,0.223-0.207
	c0.249-0.234,0.502-0.477,0.758-0.718c0.09-0.086,0.183-0.177,0.275-0.265c0.255-0.245,0.515-0.497,0.772-0.75
	c0.081-0.076,0.159-0.151,0.238-0.231c0.341-0.336,0.681-0.678,1.021-1.026c0.291-0.293,0.581-0.591,0.869-0.892
	c0.017-0.017,0.032-0.036,0.048-0.056c0.271-0.283,0.542-0.568,0.806-0.855c0.026-0.03,0.05-0.058,0.077-0.083
	c0.256-0.28,0.51-0.557,0.76-0.838c0.039-0.044,0.075-0.086,0.116-0.13c0.235-0.268,0.468-0.534,0.694-0.797
	c0.036-0.045,0.071-0.085,0.108-0.129c0.228-0.267,0.452-0.538,0.669-0.805c0.039-0.046,0.072-0.088,0.108-0.134
	c0.214-0.263,0.423-0.526,0.626-0.792c0.053-0.067,0.102-0.138,0.156-0.208c0.18-0.237,0.36-0.476,0.53-0.713
	c0.061-0.082,0.114-0.165,0.172-0.246c0.156-0.224,0.313-0.445,0.459-0.664c0.061-0.091,0.115-0.184,0.175-0.273
	c0.132-0.205,0.267-0.414,0.391-0.62c0.062-0.101,0.115-0.202,0.172-0.298c0.111-0.193,0.225-0.385,0.325-0.576
	c0.058-0.108,0.104-0.209,0.157-0.314c0.091-0.18,0.184-0.359,0.264-0.534c0.049-0.108,0.086-0.214,0.132-0.324
	c0.069-0.168,0.143-0.335,0.201-0.497c0.043-0.121,0.073-0.237,0.109-0.358c0.045-0.14,0.096-0.287,0.133-0.429
	c0.029-0.125,0.045-0.243,0.067-0.366c0.012-0.05,0.019-0.101,0.03-0.152C44.866,45.791,44.868,45.779,44.865,45.769z"/>
<path fill="#FFFFFF" d="M51.915,11.933l-0.09-0.144H39.49l-0.027,0.144c-0.091,0.732-0.168,1.442-0.238,2.135
	c-0.037,0.361-0.066,0.705-0.098,1.057c-0.029,0.321-0.062,0.647-0.089,0.96c-0.036,0.45-0.063,0.883-0.094,1.323
	c-0.012,0.188-0.029,0.388-0.04,0.575c-0.031,0.502-0.053,0.985-0.074,1.468c-0.004,0.103-0.01,0.217-0.014,0.322
	c-0.021,0.524-0.033,1.031-0.042,1.528c-0.001,0.054-0.002,0.108-0.004,0.162c-0.007,0.532-0.007,1.049-0.004,1.551
	c0,0.014,0,0.027,0,0.038c0.016,1.549,0.087,2.964,0.207,4.261l0.002,0.005c0.039,0.428,0.083,0.845,0.132,1.247
	c0,0.004,0.001,0.012,0.001,0.012l0.002,0.004c0.029,0.252,0.063,0.498,0.097,0.743c0.011,0.078,0.021,0.153,0.033,0.235
	c0.112,0.763,0.241,1.482,0.385,2.165c0.009,0.034,0.014,0.069,0.022,0.105c1.157,5.41,3.183,8.3,4.427,11.409
	c0.009,0.021,0.017,0.04,0.027,0.062c0.065,0.167,0.128,0.331,0.188,0.498c0.014,0.039,0.028,0.075,0.041,0.113
	c0.066,0.188,0.129,0.37,0.188,0.561c0.008,0.027,0.017,0.052,0.024,0.075c0.05,0.165,0.097,0.331,0.145,0.499
	c0.012,0.047,0.025,0.096,0.039,0.149c0.05,0.193,0.097,0.39,0.139,0.589c0.047,0.217,0.073,0.45,0.082,0.688
	c0.004,0.118-0.012,0.246-0.018,0.367c-0.005,0.124-0.002,0.246-0.015,0.376c-0.018,0.129-0.048,0.265-0.074,0.401
	c-0.022,0.131-0.038,0.252-0.067,0.385c-0.037,0.145-0.088,0.3-0.133,0.451c-0.036,0.125-0.066,0.246-0.109,0.372
	c-0.059,0.175-0.132,0.35-0.201,0.523c-0.046,0.117-0.083,0.223-0.132,0.338c-0.08,0.186-0.173,0.373-0.264,0.558
	c-0.054,0.112-0.1,0.223-0.157,0.335c-0.1,0.2-0.214,0.398-0.325,0.603c-0.057,0.103-0.11,0.209-0.172,0.315
	c-0.124,0.215-0.259,0.432-0.391,0.651c-0.061,0.096-0.115,0.191-0.175,0.285c-0.146,0.229-0.303,0.464-0.459,0.693
	c-0.059,0.091-0.111,0.178-0.172,0.263c-0.17,0.249-0.35,0.501-0.53,0.749c-0.054,0.072-0.103,0.143-0.156,0.216
	c-0.203,0.274-0.412,0.555-0.626,0.832c-0.036,0.046-0.07,0.094-0.108,0.14c-0.217,0.284-0.441,0.567-0.669,0.844
	c-0.037,0.045-0.072,0.092-0.108,0.136c-0.227,0.276-0.459,0.56-0.694,0.836c-0.041,0.046-0.077,0.093-0.116,0.138
	c-0.25,0.295-0.504,0.588-0.76,0.88c-0.027,0.029-0.051,0.056-0.077,0.086c-0.264,0.301-0.535,0.603-0.806,0.9
	c-0.016,0.015-0.031,0.035-0.048,0.055c-0.288,0.317-0.578,0.629-0.869,0.938c-0.34,0.363-0.68,0.724-1.021,1.071
	c-0.079,0.086-0.157,0.166-0.238,0.248c-0.257,0.266-0.517,0.53-0.772,0.79c-0.092,0.09-0.185,0.182-0.275,0.277
	c-0.256,0.256-0.509,0.504-0.758,0.754c-0.074,0.067-0.15,0.144-0.223,0.219c-0.311,0.303-0.621,0.602-0.92,0.89
	c-0.007,0.006-0.012,0.013-0.017,0.018c-0.098,0.092-0.192,0.183-0.288,0.274c-0.134,0.125-0.264,0.25-0.394,0.375
	c-0.106,0.098-0.212,0.2-0.316,0.296c-0.137,0.129-0.272,0.256-0.403,0.378c-0.139,0.128-0.277,0.257-0.409,0.378
	c-0.12,0.112-0.237,0.22-0.353,0.327c-0.092,0.085-0.185,0.17-0.275,0.253c-0.117,0.104-0.229,0.21-0.338,0.308
	c-0.1,0.09-0.197,0.181-0.292,0.265c-0.125,0.113-0.251,0.224-0.37,0.33c-0.065,0.057-0.128,0.115-0.191,0.172
	c-0.112,0.099-0.223,0.198-0.326,0.288c-0.034,0.032-0.073,0.069-0.106,0.093c-0.138,0.125-0.265,0.234-0.383,0.337
	c-0.023,0.024-0.044,0.042-0.067,0.063c-0.11,0.094-0.216,0.18-0.303,0.258c-0.004,0.005-0.008,0.007-0.013,0.01
	c-0.292,0.253-0.457,0.396-0.469,0.406v16.635l-0.003,21.492l2.692,2.164h32.691h40.265v-0.003H91.941H68.502
	c-0.591-2.339-0.697-5.42,0.847-8.503c1.987-3.971,12.178-10.319,17.397-13.758c2.704-1.779,4.879-1.432,8.104-0.832
	c0.004,0,18.915,7.754,25.131-5.052c0-0.003,0.003-0.005,0.004-0.013l1.203-2.531c0.594-1.39,1.213-2.911,2.094-4.533
	c0.078-0.14,0.15-0.277,0.225-0.413c0.094-0.18,0.186-0.348,0.279-0.524l0.943-1.991c2.246-0.831,3.85-2.988,3.85-5.523
	c0-0.008-0.003-0.018-0.003-0.025c0-0.019,0.003-0.038,0.003-0.06c0-3.171-2.779-5.742-6.211-5.742c-0.26,0-0.516,0.018-0.77,0.047
	c-0.023-0.003-0.039-0.005-0.051-0.003c-1.592-0.159-3.648-0.535-6.357-1.292c-0.688-0.191-1.356-0.389-2.012-0.587
	c-0.182-0.055-0.357-0.114-0.538-0.169c-0.472-0.145-0.938-0.294-1.396-0.447c-0.193-0.064-0.383-0.131-0.574-0.196
	c-0.434-0.15-0.863-0.301-1.279-0.452c-0.186-0.068-0.367-0.14-0.547-0.208c-0.416-0.161-0.828-0.322-1.23-0.485
	c-0.166-0.072-0.334-0.142-0.498-0.214c-0.408-0.173-0.813-0.352-1.207-0.538c-0.145-0.067-0.291-0.135-0.43-0.205
	c-0.416-0.198-0.82-0.402-1.217-0.614c-0.115-0.064-0.23-0.12-0.346-0.184c-0.43-0.235-0.85-0.478-1.262-0.732
	c-0.072-0.044-0.149-0.084-0.221-0.129c-0.465-0.29-0.922-0.594-1.365-0.907c-0.035-0.024-0.063-0.047-0.098-0.073
	c-1.752-1.393-11.604-14.875-11.604-14.875l0,0c-0.133-0.199-0.259-0.383-0.382-0.567c-0.046-0.07-0.093-0.137-0.136-0.203
	c-0.402-0.591-0.771-1.118-1.102-1.58c-0.012-0.021-0.027-0.039-0.041-0.058c-0.467-0.648-0.859-1.173-1.178-1.578
	c-0.002-0.008-0.006-0.01-0.011-0.015c-0.229-0.293-0.419-0.53-0.567-0.709c-0.012-0.012-0.025-0.031-0.036-0.042
	c-0.126-0.153-0.22-0.259-0.28-0.329c-0.016-0.015-0.027-0.032-0.038-0.042c-0.011-0.013-0.021-0.026-0.028-0.031
	c-0.008-0.007-0.018-0.022-0.018-0.022c-0.203-0.106-21.448-20.633-21.448-20.633l-0.125-0.144h-8.323 M55.687,11.933
	c1.938,6.982,8.621,15.08,8.621,15.08c-2.323-1.612-7.901-8.895-12.42-15.08"/>
<path fill="#A6A6A6" d="M26.992,69.261v13.766v24.341c0,1.195,0.696,2.166,1.557,2.166H46.07h13.813
	C59.883,109.533,51.875,69.261,26.992,69.261z"/>
<path fill="#D84681" d="M48.429,97.405c1.256-3.066,0.691-6.283-1.291-7.651c-2.24-1.544-4.298-0.663-5.616,0.319
	c-0.445,0.382-0.9,0.846-1.363,1.42c0,0-0.023-0.028-0.058-0.068c-0.035,0.04-0.058,0.068-0.058,0.068
	c-0.463-0.574-0.918-1.038-1.365-1.42c-1.317-0.982-3.375-1.863-5.613-0.319c-1.983,1.368-2.548,4.585-1.291,7.651
	c2.272,3.626,7.28,6.053,8.132,6.445c0.066,0.017,0.129,0.038,0.195,0.049c0.066-0.011,0.128-0.032,0.196-0.049
	C41.148,103.458,46.156,101.031,48.429,97.405z"/>
<path fill="#C3CE4E" d="M62.749,24.929c-1.632-2.215-4.151-5.92-5.843-9.726c-0.504-1.135-0.941-2.281-1.25-3.403h-3.831
	c0,0,0.798,1.391,2.065,3.403c2.632,4.185,7.289,11.081,11.065,13.957c0,0,1.148,0.957,1.771,0.855l0.186-0.084L62.749,24.929z"/>
</svg>
